# xmcd CD database file
#
# Track frame offsets:
#	150
#	17725
#	38732
#	58617
#	94820
#	141685
#	161472
#	180007
#	200432
#	218775
#
# Disc length: 3141 seconds
#
# Revision: 0
# Processed by: cddbd v1.5.1PL2 Copyright (c) Steve Scherf et al.
# Submitted via: CDex 1.51
#
DISCID=840c430a
DTITLE=Robert Mari - Arrival
DYEAR=2000
DGENRE=Jazz
TTITLE0=Arrival
TTITLE1=Willow Weep for Me
TTITLE2=Wade in the Water
TTITLE3=Depths
TTITLE4=Twinkle Twinkle
TTITLE5=Autumn Leaves
TTITLE6=Gifts
TTITLE7=My Funny Valentine
TTITLE8=My Favorite Things
TTITLE9=Amazing Grace
EXTD=YEAR: 2000
EXTT0=
EXTT1=
EXTT2=
EXTT3=
EXTT4=
EXTT5=
EXTT6=
EXTT7=
EXTT8=
EXTT9=
PLAYORDER=
